<svg xmlns="http://www.w3.org/2000/svg" xmlns:xlink="http://www.w3.org/1999/xlink" version="1.1" x="0px" y="0px" viewBox="0 0 100 125" enable-background="new 0 0 100 100" fill="#ffffff" xml:space="preserve"><path d="M56.8918457,34.8710938c0-0.8286133,0.671875-1.5,1.5-1.5c0.1220703,0,0.1669922,0,0.5878906-0.5058594  c0.4941406-0.59375,1.3212891-1.5878906,2.8955078-1.5878906s2.4003906,0.9941406,2.8945313,1.5878906  c0.4208984,0.5058594,0.4658203,0.5058594,0.5878906,0.5058594s0.1679688,0,0.5888672-0.5063477  c0.4941406-0.59375,1.3203125-1.5874023,2.8945313-1.5874023s2.4003906,0.9941406,2.8945313,1.5878906  c0.4208984,0.5058594,0.4658203,0.5058594,0.5878906,0.5058594c0.828125,0,1.5,0.6713867,1.5,1.5s-0.671875,1.5-1.5,1.5  c-1.5742188,0-2.4003906-0.9941406-2.8945313-1.5878906c-0.4208984-0.5058594-0.4658203-0.5058594-0.5878906-0.5058594  s-0.1669922,0-0.5878906,0.5058594c-0.4941406,0.59375-1.3212891,1.5878906-2.8955078,1.5878906  s-2.4003906-0.9941406-2.8945313-1.5878906c-0.4208984-0.5058594-0.4658203-0.5058594-0.5878906-0.5058594  s-0.1679688,0-0.5888672,0.5063477c-0.4941406,0.59375-1.3203125,1.5874023-2.8945313,1.5874023  C57.5637207,36.3710938,56.8918457,35.699707,56.8918457,34.8710938z M39.0090332,54.4067383  c0.0913086,0,0.1845703-0.0078125,0.2783203-0.0253906c1.546875-0.2910156,2.1762695-1.4199219,2.5522461-2.09375  c0.3208008-0.5751953,0.3657227-0.5839844,0.4858398-0.6064453c0.1191406-0.0185547,0.1640625-0.03125,0.6708984,0.3896484  c0.5947266,0.4921875,1.5913086,1.3144531,3.1376953,1.0283203c1.5473633-0.2900391,2.1767578-1.4189453,2.5527344-2.09375  c0.3212891-0.5756836,0.3662109-0.5839844,0.484375-0.605957c0.1230469-0.0244141,0.1640625-0.0307617,0.671875,0.3891602  c0.5947266,0.4931641,1.5957031,1.3251953,3.1367188,1.0283203c0.8144531-0.1523438,1.3515625-0.9355469,1.1992188-1.75  c-0.1523438-0.8149414-0.9433594-1.347168-1.75-1.1987305c-0.1201172,0.0253906-0.1640625,0.0307617-0.671875-0.3891602  c-0.59375-0.4931641-1.5947266-1.3168945-3.1376953-1.0283203c-1.546875,0.2895508-2.1762695,1.4189453-2.5527344,2.09375  c-0.3203125,0.5751953-0.3652344,0.5834961-0.484375,0.6054688c-0.1171875,0.0239258-0.1640625,0.03125-0.6713867-0.3891602  c-0.5952148-0.4936523-1.5932617-1.3198242-3.1376953-1.0283203c-1.5473633,0.2895508-2.1772461,1.4189453-2.5537109,2.09375  c-0.3208008,0.5756836-0.3657227,0.5834961-0.4858398,0.605957c-0.8139648,0.1533203-1.3500977,0.9375-1.1972656,1.7509766  C37.6716309,53.9038086,38.3010254,54.4067383,39.0090332,54.4067383z M77.7346191,51.8168945  c1.5410156,0.2929688,2.5419922-0.5341797,3.1376953-1.0283203c0.5029297-0.4169922,0.5498047-0.4111328,0.6699219-0.3896484  c0.1201172,0.0224609,0.1650391,0.03125,0.4853516,0.6064453c0.3769531,0.6748047,1.0058594,1.8037109,2.5537109,2.09375  c1.5400391,0.2871094,2.5429688-0.5361328,3.1367188-1.0283203c0.5078125-0.4208984,0.5517578-0.4091797,0.6728516-0.3896484  c0.1191406,0.0224609,0.1640625,0.03125,0.484375,0.6054688c0.3759766,0.6748047,1.0058594,1.8037109,2.5527344,2.0947266  c0.0927734,0.0175781,0.1865234,0.0253906,0.2783203,0.0253906c0.7070313,0,1.3369141-0.5029297,1.4726563-1.2236328  c0.1523438-0.8134766-0.3837891-1.5976563-1.1982422-1.7509766c-0.1191406-0.0224609-0.1640625-0.0302734-0.4853516-0.605957  c-0.3759766-0.6748047-1.0058594-1.8041992-2.5527344-2.0932617c-1.5498047-0.2924805-2.5429688,0.5351563-3.1386719,1.027832  c-0.5078125,0.4204102-0.5546875,0.4125977-0.6708984,0.3891602c-0.1191406-0.0219727-0.1640625-0.0302734-0.484375-0.6054688  c-0.3769531-0.6748047-1.0068359-1.8041992-2.5537109-2.0942383c-1.5419922-0.2885742-2.5419922,0.5356445-3.1376953,1.0288086  c-0.5019531,0.4174805-0.5498047,0.4140625-0.6699219,0.3891602c-0.8183594-0.1474609-1.5986328,0.3842773-1.7509766,1.1987305  S76.9211426,51.6645508,77.7346191,51.8168945z M13.2526855,24.0556641c0-3.1430664,2.5566406-5.699707,5.699707-5.699707  s5.699707,2.5566406,5.699707,5.699707s-2.5566406,5.699707-5.699707,5.699707S13.2526855,27.1987305,13.2526855,24.0556641z   M16.2526855,24.0556641c0,1.4887695,1.2109375,2.699707,2.699707,2.699707s2.699707-1.2109375,2.699707-2.699707  s-1.2109375-2.699707-2.699707-2.699707S16.2526855,22.5668945,16.2526855,24.0556641z M17.4523926,32.828125v3.7792969  c0,0.8286133,0.6713867,1.5,1.5,1.5s1.5-0.6713867,1.5-1.5V32.828125c0-0.8286133-0.6713867-1.5-1.5-1.5  S17.4523926,31.9995117,17.4523926,32.828125z M18.9523926,17.0532227c0.8286133,0,1.5-0.6713867,1.5-1.5v-3.7792969  c0-0.8286133-0.6713867-1.5-1.5-1.5s-1.5,0.6713867-1.5,1.5v3.7792969  C17.4523926,16.3818359,18.1237793,17.0532227,18.9523926,17.0532227z M6.5358887,25.690918h3.7788086  c0.8286133,0,1.5-0.6713867,1.5-1.5s-0.6713867-1.5-1.5-1.5H6.5358887c-0.8286133,0-1.5,0.6713867-1.5,1.5  S5.7072754,25.690918,6.5358887,25.690918z M26.0900879,24.190918c0,0.8286133,0.6713867,1.5,1.5,1.5h3.7788086  c0.8286133,0,1.5-0.6713867,1.5-1.5s-0.6713867-1.5-1.5-1.5h-3.7788086  C26.7614746,22.690918,26.0900879,23.3623047,26.0900879,24.190918z M11.7839355,19.1435547  c0.2924805,0.2929688,0.6767578,0.4394531,1.0605469,0.4394531s0.7675781-0.1464844,1.0605469-0.4394531  c0.5859375-0.5854492,0.5859375-1.5351563,0-2.1210938l-2.671875-2.6723633c-0.5849609-0.5859375-1.5351563-0.5859375-2.1210938,0  c-0.5859375,0.5854492-0.5859375,1.5351563,0,2.1210938L11.7839355,19.1435547z M23.9997559,29.237793  c-0.5859375,0.5854492-0.5859375,1.5351563,0,2.1210938l2.671875,2.6723633  c0.2924805,0.2929688,0.6767578,0.4394531,1.0605469,0.4394531s0.7675781-0.1464844,1.0605469-0.4394531  c0.5859375-0.5854492,0.5859375-1.5351563,0-2.1210938l-2.671875-2.6723633  C25.5358887,28.6518555,24.5856934,28.6518555,23.9997559,29.237793z M25.0603027,19.5830078  c0.3837891,0,0.7680664-0.1464844,1.0605469-0.4394531l2.671875-2.6723633c0.5859375-0.5859375,0.5859375-1.5356445,0-2.1210938  c-0.5859375-0.5859375-1.5361328-0.5859375-2.1210938,0l-2.671875,2.6723633c-0.5859375,0.5859375-0.5859375,1.5356445,0,2.1210938  C24.2927246,19.4365234,24.6765137,19.5830078,25.0603027,19.5830078z M11.7839355,29.237793l-2.671875,2.6723633  c-0.5859375,0.5859375-0.5859375,1.5356445,0,2.1210938c0.2929688,0.2929688,0.6767578,0.4394531,1.0605469,0.4394531  s0.7680664-0.1464844,1.0605469-0.4394531l2.671875-2.6723633c0.5859375-0.5859375,0.5859375-1.5356445,0-2.1210938  C13.3190918,28.6518555,12.3688965,28.6518555,11.7839355,29.237793z M3.4997559,72.9223633  c4.1073608,0,6.2044678-0.7592773,8.2171021-1.5002441c0.0175171-0.0064697,0.0354614-0.0128784,0.0529175-0.0192871  c1.8637695-0.6865234,3.6245117-1.3349609,7.2329102-1.3349609s5.3691406,0.6484375,7.2329102,1.3349609  c0.0174561,0.0064087,0.0354004,0.0128174,0.0529175,0.0192871c2.0126343,0.7409668,4.1097412,1.5002441,8.2171021,1.5002441  c4.1068726,0,6.2034912-0.7592773,8.2161255-1.5002441c0.0175171-0.0064697,0.0354614-0.0128784,0.0529175-0.0192871  c1.8637695-0.6865234,3.6240234-1.3349609,7.2314453-1.3349609s5.3681641,0.6484375,7.2314453,1.3349609  c0.0174561,0.0064087,0.0354004,0.0128174,0.0529175,0.0192871c2.012207,0.7409668,4.1087646,1.5002441,8.2156372,1.5002441  c4.105896,0,6.2015381-0.7592773,8.2136841-1.5002441c0.0175171-0.0064697,0.0354614-0.0128784,0.0529175-0.0192871  c1.8632813-0.6865234,3.6230469-1.3349609,7.2285156-1.3349609c3.6064453,0,5.3671875,0.6484375,7.2304688,1.3349609  c0.0174561,0.0064087,0.0354004,0.0128174,0.0529175,0.0192871c2.012207,0.7409668,4.1087646,1.5002441,8.2156372,1.5002441  c0.828125,0,1.5-0.671875,1.5-1.5s-0.671875-1.5-1.5-1.5c-3.6074219,0-5.3681641-0.6484375-7.2314453-1.3349609  c-2.0283203-0.7470703-4.1259766-1.5195313-8.2675781-1.5195313c-4.140625,0-6.2373047,0.7724609-8.265625,1.5195313  c-1.8632813,0.6865234-3.6230469,1.3349609-7.2294922,1.3349609c-3.6074219,0-5.3681641-0.6484375-7.2314453-1.3349609  c-2.0283203-0.7470703-4.1259766-1.5195313-8.2685547-1.5195313s-6.2397461,0.7724609-8.2685547,1.5195313  c-1.8637695,0.6865234-3.6240234,1.3349609-7.2319336,1.3349609c-3.6083984,0-5.3691406-0.6484375-7.2329102-1.3349609  c-2.0288086-0.7470703-4.1269531-1.5195313-8.2700195-1.5195313s-6.2412109,0.7724609-8.2700195,1.5195313  c-1.8637695,0.6865234-3.6245117,1.3349609-7.2329102,1.3349609c-0.8286133,0-1.5,0.671875-1.5,1.5  S2.6711426,72.9223633,3.4997559,72.9223633z M96.5002441,78.3237305c-3.6074219,0-5.3681641-0.6484375-7.2314453-1.3339844  c-2.0283203-0.7470703-4.1259766-1.5195313-8.2675781-1.5195313c-4.140625,0-6.2373047,0.7724609-8.265625,1.5195313  c-1.8632813,0.6855469-3.6230469,1.3339844-7.2294922,1.3339844c-3.6074219,0-5.3681641-0.6484375-7.2314453-1.3339844  c-2.0283203-0.7470703-4.1259766-1.5195313-8.2685547-1.5195313c-4.1420898,0-6.2397461,0.7724609-8.2680664,1.5195313  c-1.8637695,0.6855469-3.6245117,1.3339844-7.2324219,1.3339844c-3.6083984,0-5.3691406-0.6484375-7.2333984-1.3339844  c-2.0288086-0.7470703-4.1264648-1.5195313-8.2695313-1.5195313s-6.2407227,0.7724609-8.2695313,1.5195313  c-1.8642578,0.6855469-3.625,1.3339844-7.2333984,1.3339844c-0.8286133,0-1.5,0.671875-1.5,1.5s0.6713867,1.5,1.5,1.5  c4.1430664,0,6.2407227-0.7724609,8.2695313-1.5195313c1.8642578-0.6855469,3.625-1.3339844,7.2333984-1.3339844  s5.3691406,0.6484375,7.2333984,1.3339844c2.0288086,0.7470703,4.1264648,1.5195313,8.2695313,1.5195313  c4.1425781,0,6.2402344-0.7724609,8.2685547-1.5195313c1.8637695-0.6855469,3.6245117-1.3339844,7.2319336-1.3339844  s5.3681641,0.6484375,7.2314453,1.3339844c2.0283203,0.7470703,4.1259766,1.5195313,8.2685547,1.5195313  c4.1416016,0,6.2382813-0.7724609,8.2666016-1.5195313c1.8632813-0.6855469,3.6220703-1.3339844,7.2285156-1.3339844  c3.6074219,0,5.3671875,0.6484375,7.2304688,1.3339844c2.0283203,0.7470703,4.1259766,1.5195313,8.2685547,1.5195313  c0.828125,0,1.5-0.671875,1.5-1.5S97.3283691,78.3237305,96.5002441,78.3237305z M96.5002441,86.7260742  c-3.6074219,0-5.3681641-0.6484375-7.2314453-1.3349609c-2.0283203-0.7470703-4.1259766-1.5195313-8.2675781-1.5195313  c-4.140625,0-6.2373047,0.7724609-8.265625,1.5195313c-1.8632813,0.6865234-3.6230469,1.3349609-7.2294922,1.3349609  c-3.6074219,0-5.3681641-0.6484375-7.2314453-1.3349609c-2.0283203-0.7470703-4.1259766-1.5195313-8.2685547-1.5195313  s-6.2397461,0.7724609-8.2685547,1.5195313c-1.8637695,0.6865234-3.6240234,1.3349609-7.2319336,1.3349609  c-3.6083984,0-5.3691406-0.6484375-7.2329102-1.3349609c-2.0288086-0.7470703-4.1269531-1.5195313-8.2700195-1.5195313  s-6.2412109,0.7724609-8.2700195,1.5195313c-1.8637695,0.6865234-3.6245117,1.3349609-7.2329102,1.3349609  c-0.8286133,0-1.5,0.671875-1.5,1.5s0.6713867,1.5,1.5,1.5c4.1430664,0,6.2412109-0.7724609,8.2700195-1.5195313  c1.8637695-0.6865234,3.6245117-1.3349609,7.2329102-1.3349609s5.3691406,0.6484375,7.2329102,1.3349609  c2.0288086,0.7470703,4.1269531,1.5195313,8.2700195,1.5195313c4.1425781,0,6.2402344-0.7724609,8.269043-1.5195313  c1.8637695-0.6865234,3.6240234-1.3349609,7.2314453-1.3349609s5.3681641,0.6484375,7.2314453,1.3349609  c2.0283203,0.7470703,4.1259766,1.5195313,8.2685547,1.5195313c4.1416016,0,6.2382813-0.7724609,8.2666016-1.5195313  c1.8632813-0.6865234,3.6230469-1.3349609,7.2285156-1.3349609c3.6064453,0,5.3671875,0.6484375,7.2304688,1.3349609  c2.0283203,0.7470703,4.1259766,1.5195313,8.2685547,1.5195313c0.828125,0,1.5-0.671875,1.5-1.5  S97.3283691,86.7260742,96.5002441,86.7260742z"/></svg>