<svg xmlns="http://www.w3.org/2000/svg" xmlns:xlink="http://www.w3.org/1999/xlink" version="1.1" x="0px" y="0px" viewBox="0 0 98 122.5" enable-background="new 0 0 98 98" fill="#ffffff" xml:space="preserve"><g><rect x="2.3623" y="83.2041" width="2" height="2"/><rect x="62.8174" y="83.2041" width="3.897" height="2"/><rect x="39.4356" y="83.2041" width="3.897" height="2"/><rect x="47.2295" y="83.2041" width="3.897" height="2"/><rect x="55.0235" y="83.2041" width="3.897" height="2"/><rect x="70.6118" y="83.2041" width="3.897" height="2"/><rect x="78.4058" y="83.2041" width="3.897" height="2"/><rect x="86.1997" y="83.2041" width="3.897" height="2"/><rect x="8.2593" y="83.2041" width="3.897" height="2"/><rect x="16.0533" y="83.2041" width="3.897" height="2"/><rect x="23.8472" y="83.2041" width="3.897" height="2"/><rect x="31.6416" y="83.2041" width="3.897" height="2"/><rect x="93.9937" y="83.2041" width="2" height="2"/><rect x="2.3623" y="93.5688" width="93.6313" height="2"/><path d="M76.2989,41.0181c0.3516,0.0381,0.667,0.2109,0.8882,0.4868l1.5596-1.2529c-0.5562-0.6919-1.3486-1.126-2.2314-1.2222   c-0.8867-0.0952-1.75,0.1582-2.4419,0.7139l1.2529,1.5586C75.6016,41.0811,75.9473,40.9815,76.2989,41.0181z"/><path d="M87.1753,48.6612c0-0.73,0.5942-1.3237,1.3242-1.3237v-2c-1.833,0-3.3242,1.4912-3.3242,3.3237H87.1753z"/><path d="M74.4644,54.1065c0.3052,0,0.6152-0.0425,0.9229-0.1313l-0.5566-1.9209c-0.6963,0.2017-1.436-0.2021-1.6401-0.9043   l-1.9209,0.5566C71.691,53.1597,73.0225,54.1065,74.4644,54.1065z"/><path d="M85.2769,41.7007v-2c-1.833,0-3.3242,1.4912-3.3242,3.3237h2C83.9527,42.2945,84.5469,41.7007,85.2769,41.7007z"/><path d="M85.7359,54.1895l-0.2002,1.9902c0.1123,0.0112,0.2241,0.0166,0.335,0.0166c1.6846,0,3.1323-1.2803,3.3047-2.9917   l-1.9902-0.2002C87.1123,53.7305,86.4615,54.2613,85.7359,54.1895z"/><path d="M80.0547,48.3345c0-0.73,0.5938-1.3242,1.3237-1.3242v-2c-1.8325,0-3.3237,1.4912-3.3237,3.3242H80.0547z"/><path d="M71.8897,46.4019v-2c-1.833,0-3.3242,1.4912-3.3242,3.3237h2C70.5655,46.9956,71.1597,46.4019,71.8897,46.4019z"/><path d="M1.5782,55.48c0.8545,1.833,2.7676,3.4106,5.2925,3.3979c0.2207,3.744,4.5493,5.8582,7.7017,4.188   c-0.3137,3.2129-0.8173,6.4876-1.4879,9.7734H2.3623v2c19.0351,0,72.6243,0,93.6313,0v-2H84.6411   c-0.6725-3.2841-1.1799-6.595-1.5004-9.8857c3.073,1.7787,7.3512-0.0303,7.8169-3.8701c5.109,0.101,7.9509-6.2284,4.5767-10.0557   c2.7793-3.0913,0.8718-8.1413-3.1455-8.6743c0.3321-3.6023-3.1453-6.5015-6.6528-5.4785c-1.5387-1.9816-4.3732-2.4642-6.4873-1.123   c-2.0187-1.3438-4.7833-0.8567-6.2207,1.1494c-1.6904-0.52-3.5449-0.1475-4.9326,1.0469c-0.6141,0.5287-1.0781,1.162-1.3857,1.8547   c-0.9691-1.2715-2.3962-2.1052-4.0415-2.2883c0.5291-4.2012-3.5473-7.7959-7.7651-6.4668   c-1.7504-2.3667-5.1041-3.0004-7.6274-1.3311c-2.3789-1.6566-5.6808-1.0594-7.3076,1.3599   c-3.7699-1.2551-7.9077,1.5224-7.9077,5.7163c0,0.2358,0.0142,0.4722,0.042,0.7075c-0.7966,0.0834-1.506,0.3375-2.138,0.6901   c-1.3311-1.3074-3.2917-1.8222-5.0954-1.3116c-1.5539-2.011-4.3861-2.4483-6.4849-1.125   c-2.0262-1.3408-4.8054-0.8632-6.2275,1.1431c-3.4576-1.0688-7.0896,1.756-6.7334,5.4785   c-4.1893,0.6139-5.856,5.8064-2.9961,8.7646C0.7105,51.0703,0.709,53.6143,1.5782,55.48z M23.7705,72.8394   c-0.6744-3.2935-1.1805-6.6033-1.4951-9.8828c1.1284,0.6514,2.5049,0.8638,3.8921,0.5215   c1.8462-0.4541,3.6313-1.9673,3.9214-4.4033c1.3651-0.0065,2.7042-0.4892,3.7759-1.3523c0.3007,2.0891,1.7296,3.8872,3.9047,4.6838   c1.604,0.5869,3.5654,0.561,5.2026-0.4468c-0.3389,3.5906-0.8759,7.2363-1.5867,10.8799H23.7705z M53.2737,72.8394   c-0.7124-3.6785-1.2518-7.3639-1.5959-11.0019c1.5088,0.9995,3.354,1.1533,4.9277,0.7256   c2.1714-0.5898,4.2246-2.3945,4.4287-5.2002c0.8511,0.0237,1.6605-0.116,2.4191-0.3727c1.1035,1.1879,2.669,1.8701,4.2864,1.8722   c0.2076,3.757,4.5354,5.8706,7.6992,4.2046c-0.3215,3.2631-0.8267,6.5363-1.4925,9.7725H53.2737z M68.4688,41.0186   c-0.543-1.562,0.125-2.8604,0.9312-3.5547c0.8066-0.6938,2.1748-1.168,3.5957-0.4209l0.957,0.5029   c0.3001-0.484,0.5177-2.1606,2.2969-2.5024c1.7492-0.3396,2.5791,1.0964,2.9482,1.3618l0.7056-0.6455   c1.417-1.2951,3.6721-0.8899,4.5425,0.7964l0.4463,0.8647l0.8765-0.4224c2.5238-1.2138,5.4425,1.1969,4.4404,4.0137l-0.5483,1.5425   l1.623-0.2163c3.21-0.4358,4.9375,3.9178,2.1992,5.8516l-1.0938,0.7729l1.0518,0.8291c3.3425,2.635,0.8696,8.0313-3.2588,7.209   l-1.2871-0.2578l0.0933,1.3096c0.2736,3.8339-4.7342,4.9056-6.1665,1.6753l-2.2798-5.146l0.3677,5.6167   c0.2744,4.1899,0.8398,8.4365,1.6826,12.6406h-6.5967c0.8188-4.0674,1.377-8.1919,1.6606-12.2783l0.3057-4.4023l-2.1733,3.8403   c-1.7793,3.1437-6.6258,1.3914-5.9951-2.0771l0.2715-1.4922l-1.478,0.3384c-1.1636,0.2643-2.374-0.0388-3.2731-0.7643   c0.9109-0.6903,1.6711-1.6142,2.1916-2.7645c1.0132-2.2397,0.9756-5.3232-1.1499-7.6172c0.8572-0.8984,1.3834-2.0154,1.5579-3.2093   l1.0949,0.1566L68.4688,41.0186z M33.2422,37.4995l1.5928,0.1875l-0.5327-1.5127c-0.1606-0.4561-0.2422-0.9209-0.2422-1.3813   c0-3.1227,3.3304-4.909,5.8838-3.5581l0.9653,0.5103l0.4238-1.0063c0.9011-2.1423,3.6437-2.5856,5.2192-1.0313l0.6719,0.6631   l0.7007-0.6333c1.7987-1.6244,4.5919-1.1063,5.6826,1.0024l0.4448,0.8608l0.8745-0.4175c3.2968-1.5749,6.7763,1.6846,5.5361,4.9702   l-0.5728,1.5181l1.6133-0.1704c2.0644-0.2221,3.7085,0.9699,4.2827,2.7798c0.4307,1.3584,0.2612,3.2544-1.5073,4.502   l-1.1016,0.7769l1.0625,0.8291c2.2744,1.7744,2.1992,4.3555,1.4434,6.0264c-0.7471,1.6523-2.6343,3.3887-5.4829,2.8511   l-1.3291-0.2515l0.1494,1.3442c0.5005,4.5102-5.8081,6.2253-7.6758,2.042l-2.2764-5.1001l0.3652,5.5732   c0.3015,4.5917,0.9185,9.2837,1.8094,13.9653h-7.8265c0.8713-4.5457,1.478-9.093,1.7773-13.5352l0.2979-4.4126l-2.167,3.855   c-1.2256,2.1812-3.3867,2.3228-4.8672,1.7817c-1.5962-0.5845-3.0171-2.1626-2.5928-4.3696l0.2925-1.5205l-1.5059,0.3589   c-2.7266,0.6475-4.5796-1.0112-5.3398-2.6294c-0.7661-1.6304-0.8511-4.1431,1.4312-5.8584l1.1548-0.8682l-1.2192-0.7749   c-1.9707-1.2529-2.0923-3.3223-1.5972-4.7134C29.5762,38.7608,30.9551,37.2251,33.2422,37.4995z M4.4844,48.2549   c-2.6974-1.7297-1.4668-5.9375,1.7412-5.9375c0.0996,0,0.1929,0.0063,0.2856,0.0195l1.627,0.2339l-0.54-1.5522   c-1.0175-2.9279,2.0697-5.2869,4.5215-3.979l0.96,0.5137l0.4302-1.001c0.7227-1.6816,2.8771-2.0767,4.1562-0.8179l0.6812,0.6704   l0.7007-0.6494c1.3646-1.2649,3.6397-0.9203,4.5273,0.8008l0.4463,0.8652l0.8765-0.4229c1.1674-0.5622,2.5372-0.3458,3.4875,0.4589   c-0.5326,0.61-0.9343,1.3098-1.1887,2.025c-0.6899,1.9399-0.4619,4.4824,1.394,6.2764c-0.4005,0.4269-0.7034,0.8871-0.96,1.3587   v-1.7801c-1.8325,0-3.3237,1.4912-3.3237,3.3237h2c0-0.6818,0.5246-1.2248,1.1877-1.2962   c-0.9335,1.913-0.7972,4.0601-0.0323,5.7547l-1.1457-0.1152c-0.0732,0.7261-0.7207,1.2568-1.4497,1.1851l-0.2002,1.9902   c0.1128,0.0112,0.2241,0.0166,0.335,0.0166c1.3493,0,2.5347-0.8281,3.0466-2.0345c0.793,1.1754,1.9708,2.1644,3.4387,2.6502   c-0.6882,0.2614-1.4421,0.3361-2.1753,0.189l-1.2871-0.2578l0.0933,1.3096c0.1494,2.0908-1.1567,3.1704-2.4287,3.4834   c-1.3188,0.3237-2.9854-0.1064-3.7256-1.8027L19.69,54.5205l0.3594,5.6763c0.2646,4.1743,0.8267,8.4214,1.6724,12.6426h-6.5894   c0.8286-4.1445,1.3843-8.27,1.6533-12.2808l0.2939-4.3799l-2.1616,3.8203c-1.7855,3.1531-6.6235,1.3779-5.9951-2.0776l0.271-1.4912   l-1.4775,0.3374c-2.2173,0.5098-3.7187-0.8311-4.3252-2.1323c-0.6147-1.3188-0.6802-3.3516,1.1567-4.7412l1.1445-0.8652   L4.4844,48.2549z"/><path d="M16.3194,41.5049l1.5586-1.2529c-1.1475-1.4282-3.2432-1.6567-4.6733-0.5083l1.2529,1.5586   C15.0264,40.8448,15.8614,40.9361,16.3194,41.5049z"/><path d="M13.5957,54.1065c0.3052,0,0.6157-0.042,0.9233-0.1313l-0.5566-1.9209c-0.3389,0.0981-0.6973,0.0586-1.0068-0.1123   c-0.3101-0.1709-0.5347-0.4521-0.6333-0.792l-1.9209,0.5566C10.8218,53.1597,12.1534,54.1065,13.5957,54.1065z"/><path d="M24.4087,41.7007v-2c-1.833,0-3.3242,1.4912-3.3242,3.3237h2C23.0845,42.2945,23.6787,41.7007,24.4087,41.7007z"/><path d="M19.1861,48.3345c0-0.73,0.5942-1.3242,1.3242-1.3242v-2c-1.833,0-3.3242,1.4912-3.3242,3.3242H19.1861z"/><path d="M11.021,46.4019v-2c-1.8325,0-3.3237,1.4912-3.3237,3.3237h2C9.6973,46.9956,10.2911,46.4019,11.021,46.4019z"/><path d="M44.9742,36.5801l1.5586-1.2529c-1.2988-1.6157-3.668-1.8726-5.2842-0.5747l1.2529,1.5586   C43.2564,35.7041,44.3658,35.8233,44.9742,36.5801z"/><path d="M58.2559,43.4336v-2c-2.0728,0-3.7588,1.686-3.7588,3.7588h2C56.4971,44.2227,57.2862,43.4336,58.2559,43.4336z"/><path d="M41.5957,51.4688c0.3447,0,0.6958-0.0479,1.043-0.1484l-0.5557-1.9209c-0.9316,0.2681-1.9092-0.269-2.1787-1.2007   l-1.9209,0.5566C38.459,50.398,39.9649,51.4688,41.5957,51.4688z"/><path d="M54.4307,36.7427v-2c-2.0728,0-3.7588,1.686-3.7588,3.7588h2C52.6719,37.5318,53.461,36.7427,54.4307,36.7427z"/><path d="M56.2452,51.5523c-0.3638,0.2974-0.8208,0.436-1.2886,0.3882l-0.2002,1.9902c0.1279,0.0127,0.2559,0.019,0.3828,0.019   c0.8638,0,1.6938-0.2949,2.3716-0.8486c0.7773-0.6357,1.2607-1.5356,1.3613-2.5347l-1.9902-0.2002   C56.835,50.834,56.6089,51.2549,56.2452,51.5523z"/><path d="M48.0445,44.8042c0-0.9697,0.7891-1.7588,1.7588-1.7588v-2c-2.0728,0-3.7588,1.686-3.7588,3.7588H48.0445z"/><path d="M38.5391,42.3233v-2c-2.0728,0-3.7588,1.686-3.7588,3.7588h2C36.7803,43.1123,37.5694,42.3233,38.5391,42.3233z"/><path d="M21.8633,15.2437c0-3.4922-2.8413-6.3335-6.3335-6.3335s-6.3335,2.8413-6.3335,6.3335s2.8413,6.333,6.3335,6.333   S21.8633,18.7359,21.8633,15.2437z M15.5298,19.5767c-2.3896,0-4.3335-1.9438-4.3335-4.333c0-2.3896,1.9438-4.3335,4.3335-4.3335   s4.3335,1.9438,4.3335,4.3335C19.8633,17.6328,17.9195,19.5767,15.5298,19.5767z"/><rect x="14.5298" y="2.4312" width="2" height="3.8237"/><rect x="5.9103" y="6.536" transform="matrix(0.7071 0.7071 -0.7071 0.7071 7.6197 -3.3238)" width="3.8235" height="1.9998"/><rect x="2.7178" y="14.2437" width="3.8237" height="2"/><rect x="6.8222" y="21.0392" transform="matrix(0.7071 0.7071 -0.7071 0.7071 18.5198 1.1911)" width="1.9998" height="3.8235"/><rect x="14.5298" y="24.2319" width="2" height="3.8237"/><rect x="21.3258" y="21.951" transform="matrix(0.7071 0.7071 -0.7071 0.7071 23.0349 -9.7093)" width="3.8235" height="1.9998"/><rect x="24.5181" y="14.2437" width="3.8237" height="2"/><rect x="22.2377" y="5.6241" transform="matrix(0.7071 0.7071 -0.7071 0.7071 12.1348 -14.2242)" width="1.9998" height="3.8235"/><path d="M72.8057,21.0777v2c2.1221,0,3.8481,1.7266,3.8481,3.8486h2c0-2.1221,1.7266-3.8486,3.8486-3.8486v-2   c-2.0156,0-3.7964,1.0249-4.8486,2.5811C76.6021,22.1026,74.8213,21.0777,72.8057,21.0777z"/><path d="M66.7237,8.9434h2c0-1.5781,1.2837-2.8618,2.8618-2.8618v-2c-1.5723,0-2.9727,0.75-3.8618,1.9111   c-0.8892-1.1611-2.2896-1.9111-3.8618-1.9111v2C65.44,6.0816,66.7237,7.3653,66.7237,8.9434z"/><path d="M84.0191,9.0005v2c1.897,0,3.4399,1.5435,3.4399,3.4404h2c0-1.897,1.543-3.4404,3.4399-3.4404v-2   c-1.8311,0-3.4536,0.9092-4.4399,2.3003C87.4727,9.9097,85.8501,9.0005,84.0191,9.0005z"/><path d="M49.1153,14.9429h15.374v-2h-1.778c-0.4679-2.56-2.8147-4.2743-5.242-4.0903c-0.9481-2.1376-3.2645-3.32-5.5181-2.8667   c-0.959-1.7461-2.9692-3.2876-5.499-3.2876c-3.5011,0-6.3098,2.8747-6.2275,6.3833c-2.0295,0.2954-3.7347,1.8452-4.1667,3.9497   h-1.7883v2h7.9731v-2h-4.1033c0.4855-1.3691,1.8055-2.124,3.0906-1.9834l1.3735,0.1528l-0.2847-1.3525   c-0.5874-2.7905,1.5435-5.1499,4.1333-5.1499c2.0068,0,3.5273,1.4121,3.9922,2.8071l0.312,0.9355   c0.1003-0.032,1.1769-0.3752,1.0767-0.3433c1.6872-0.6681,3.5841,0.341,3.9888,2.1084l0.2344,1.0254l1.0122-0.2861   c1.4507-0.4092,3.0702,0.4177,3.5749,1.9976h-11.528V14.9429z"/><rect x="44.6436" y="12.9429" width="2.832" height="2"/></g></svg>